<?xml version="1.0" encoding="UTF-8" standalone="no"?>
<svg width="102px" height="61px" viewBox="0 0 102 61" version="1.1" xmlns="http://www.w3.org/2000/svg" xmlns:xlink="http://www.w3.org/1999/xlink" xmlns:sketch="http://www.bohemiancoding.com/sketch/ns">
    <!-- Generator: Sketch 3.4.2 (15855) - http://www.bohemiancoding.com/sketch -->
    <title>sx_logo</title>
    <desc>Created with Sketch.</desc>
    <defs></defs>
    <g id="UnderConstruction" stroke="none" stroke-width="1" fill="none" fill-rule="evenodd" sketch:type="MSPage">
        <g id="iPhone-5/5S/5C" sketch:type="MSArtboardGroup" transform="translate(-109.000000, -29.000000)" fill="#FFFFFF">
            <g id="landing-copy-2" sketch:type="MSLayerGroup" transform="translate(-28.000000, -28.000000)">
                <path d="M225.237224,91.4655771 L225.604032,91.4655771 L225.604032,81.2614952 L227.156054,81.2614952 L227.156054,92.8945146 L224.522659,92.8945146 L214.38689,82.7085489 L214.038759,82.7085489 L214.038759,92.8945146 L212.48711,92.8945146 L212.48711,81.2614952 L215.06765,81.2614952 L225.237224,91.4655771 Z M209.143582,81.2651334 L210.721679,81.2651334 L210.721679,92.8981528 L209.143582,92.8981528 L209.143582,81.2651334 Z M138.534279,89.2666083 L138.534279,89.5110834 C138.569391,90.8548562 138.67454,91.1323887 139.266961,91.3587476 C139.721175,91.5348668 141.080455,91.622086 143.454806,91.622086 C144.970596,91.622086 146.522805,91.5167507 147.186196,91.3587476 C147.93606,91.2031726 148.302868,90.6277502 148.302868,89.6336011 C148.302868,88.6220829 148.076508,88.1678709 147.465037,87.9588811 C146.889612,87.7663266 146.889612,87.7663266 141.203347,87.7663266 C138.134041,87.7663266 137,86.8939482 137,84.5225955 C137,83.4770861 137.295463,82.7087357 137.871075,82.2371546 C138.46555,81.7498852 139.075339,81.5588248 140.401002,81.4008218 C141.256388,81.2960467 142.825219,81.2261967 143.941704,81.2261967 C146.55773,81.2261967 147.848654,81.4691777 148.651933,82.113703 C149.314951,82.639446 149.506759,83.2148683 149.523568,84.7144029 L147.971919,84.7144029 L147.971919,84.5405249 C147.971919,83.4066758 147.797107,83.109533 146.994761,82.8478755 C146.418776,82.656068 145.33647,82.5522268 143.873348,82.5522268 C139.476699,82.5522268 138.587321,82.883174 138.587321,84.5405249 C138.587321,85.6048975 138.796872,85.9537742 139.581474,86.1801331 C140.121974,86.3185258 141.029281,86.4072391 142.390242,86.4246083 C143.244135,86.4246083 143.244135,86.4246083 146.34986,86.4410436 C148.042143,86.4410436 148.843928,86.721004 149.384614,87.5052294 C149.733119,87.9939929 149.890375,88.6392653 149.890375,89.5110834 C149.890375,90.9760665 149.45297,91.8658141 148.528667,92.3366482 C147.657593,92.7563087 145.966057,92.9299999 142.460279,92.9299999 C139.808768,92.9299999 138.796872,92.7908602 138.081186,92.3530835 C137.278841,91.8493788 137.016996,91.2379108 137.016996,89.789363 C137.016996,89.7548115 137.016996,89.4763452 137.035485,89.2666083 L138.534279,89.2666083 Z M157.773939,82.6220768 C160.756212,82.6220768 161.64671,82.6558813 162.536835,82.7959549 C163.32013,82.9184726 163.739792,83.2667889 163.844568,83.9307378 C163.949717,84.4519984 164.01938,85.8486256 164.01938,87.1563528 C164.01938,88.2369739 163.932161,89.4937143 163.827572,90.1216176 C163.687498,90.8203047 163.32013,91.1859902 162.640863,91.3077608 C161.854767,91.4469006 160.25045,91.5348668 158.540611,91.5348668 C157.790747,91.5348668 155.837553,91.4814521 155.209273,91.4467139 C153.918349,91.3587476 153.447887,91.237724 153.134307,90.9060297 C152.766753,90.5067266 152.644608,89.4937143 152.644608,86.9126247 C152.644608,84.6791044 152.820168,83.5801803 153.23927,83.1973124 C153.692923,82.778399 154.877951,82.6220768 157.773939,82.6220768 Z M158.680312,81.2260099 C157.66991,81.2260099 155.662927,81.2779305 154.965731,81.3126688 C153.378783,81.4178174 152.785803,81.5743263 152.192075,82.0111691 C151.336875,82.6730636 151.057474,83.9116878 151.057474,87.0343953 C151.057474,88.9175449 151.128071,89.9998469 151.319132,90.76689 C151.52943,91.7085581 152.279668,92.4410497 153.220967,92.6509733 C154.093162,92.8433411 156.081655,92.9299999 159.18626,92.9299999 C162.744892,92.9299999 164.036376,92.7021469 164.717884,91.9875847 C165.365774,91.2905785 165.608943,89.9817307 165.608943,87.1201204 C165.608943,86.231867 165.556648,85.0640266 165.487171,84.4706749 C165.365774,83.2311169 165.155476,82.6392592 164.665589,82.1684251 C163.915352,81.4180041 162.658606,81.2260099 158.680312,81.2260099 Z M168.680116,81.2614952 L168.680116,91.5348668 L177.855537,91.5348668 L177.855537,92.8945146 L167.12772,92.8945146 L167.12772,81.2614952 L168.680116,81.2614952 Z M178.726238,81.2614952 L190.115952,81.2614952 L190.115952,82.6220768 L180.279007,82.6220768 L180.279007,86.1801331 L189.698718,86.1801331 L189.698718,87.5390338 L180.279007,87.5390338 L180.279007,91.5348668 L190.135002,91.5348668 L190.135002,92.8945146 L178.726238,92.8945146 L178.726238,81.2614952 Z M228.614507,58.5107405 C229.944278,58.8874451 230.940673,59.1717012 232.491014,59.453716 C235.591697,60.0216678 236.921281,60.2103002 238.360683,60.4930621 C238.471996,60.5870048 238.582561,60.7765711 238.582561,60.9646433 C238.582561,61.1542096 238.251052,61.3435891 238.138806,61.5324083 C235.372247,61.6265377 230.828426,62.0988659 225.514571,66.1591328 C224.849126,66.7270846 224.849126,66.7270846 223.298784,67.0090994 C223.076533,67.1964245 222.743717,67.7634425 222.634085,68.1423883 C222.079952,68.6147165 221.526379,68.8027886 220.64111,68.9914211 C220.30792,69.747445 220.195674,70.0307672 219.643968,70.5023483 C218.977402,71.4470047 216.209722,73.5242029 213.772991,75.600654 C212.332655,76.8293796 210.337438,78.9050837 208.567087,80.6055772 C206.683929,82.5895797 205.244527,84.1944497 203.914942,85.7993197 C203.471934,86.4606539 202.917614,87.2163043 202.917614,88.3497799 C202.917614,89.1041229 203.250617,90.426231 204.91227,93.636718 C205.46435,94.7716877 206.241108,96.3765576 206.462238,97.1309007 C206.462238,98.2649366 206.574298,98.5469514 207.792009,99.3029754 C210.449497,103.457372 212.885481,106.66954 216.541418,109.219066 C217.760624,110.161294 219.975664,111.297011 222.079952,111.297011 C225.401578,111.297011 228.392629,109.029313 230.275787,107.141121 C232.047632,105.346684 233.376656,103.552061 234.373798,101.947191 C234.927371,101.947191 235.148502,101.851755 235.148502,102.797905 C234.262486,104.875103 233.707979,106.007832 232.711584,107.708699 C232.49064,107.990901 231.937254,108.274596 231.827996,108.557171 C231.271995,109.219066 230.940486,109.879466 230.608977,110.53968 L230.165222,111.012755 C229.944091,111.483963 229.832032,111.861041 229.612582,112.239987 C229.279393,112.429366 228.836385,112.711568 228.172433,113.088833 C227.949621,113.467218 227.5068,114.034236 227.285483,114.223616 C226.953974,114.602001 226.289088,115.072835 225.735515,115.450287 C224.295366,116.677705 222.412021,117.434289 220.086789,117.434289 C215.323146,117.434289 211.779268,113.279333 211.004004,111.955731 C210.560996,111.106511 210.22874,110.256358 209.895177,109.218879 L207.68051,107.140934 L206.683929,104.592155 C206.019791,104.023643 205.687535,103.552061 205.355092,103.081227 C205.133214,102.229767 204.690206,100.910087 204.358697,100.057879 C204.13682,99.3967313 202.807049,97.1309007 202.253662,95.9983589 C201.700836,95.0551967 200.924078,93.2600133 200.369571,92.5043629 C200.149374,92.1267245 199.706366,91.5602669 198.930915,91.5602669 C198.266963,91.5602669 197.602078,91.8432155 196.161928,93.3547031 C194.500461,94.9603201 192.728616,96.9420815 190.51395,99.4931019 C189.405309,100.152568 189.072866,100.531701 188.519293,101.287538 C186.526504,102.797532 186.082749,103.362308 185.640301,104.213769 C185.307858,104.686097 184.642973,105.819386 184.089399,105.914076 L182.428119,106.573729 C182.206989,106.951181 181.87548,107.612889 181.431725,108.179346 C180.76796,108.463042 180.324205,108.556798 179.548754,108.651488 L177.888221,110.539493 C177.001831,110.823749 176.115629,111.201014 175.339804,111.578652 C174.122092,112.900761 173.678711,113.279146 173.013825,113.74998 C172.016684,114.034049 171.242727,114.318305 170.578215,114.602001 C169.5807,115.166591 168.915441,115.544416 167.91886,116.300067 C166.035702,116.960467 163.046332,118 159.83415,118 C155.958017,118 150.863798,116.772768 147.31824,111.955917 C144.770383,108.934436 142.778154,104.308832 142.778154,99.3029754 C142.778154,97.9821747 142.778154,97.2250302 143.109477,95.6207205 C143.330234,95.4304071 143.662116,95.2425218 143.774736,95.2425218 C144.105871,95.2425218 144.438501,95.5260307 144.549253,95.7148499 C144.438314,98.2651234 144.549253,99.0187193 144.881135,100.81465 C144.770196,101.664616 144.770196,102.041321 145.102266,102.514396 C145.102266,103.646378 145.434708,104.120947 146.100341,104.87529 C147.207861,106.951741 148.648011,109.029686 152.523771,110.634556 C154.295989,111.391701 156.732907,112.145484 159.722277,112.145484 C166.146454,112.145484 172.238935,109.596891 179.215564,104.780414 C183.314322,101.947378 189.959629,96.5655636 194.833091,90.6152369 C195.940985,89.293876 196.937566,87.973262 196.937566,86.8399732 C197.047197,85.1396664 193.060499,75.6964643 189.737938,70.3153968 L189.072306,70.3153968 C188.187224,71.8250167 187.744216,72.3903538 187.411026,75.036064 C187.07933,75.1301934 186.857639,75.1301934 186.636322,75.1301934 C186.415191,75.1301934 186.193314,75.036064 186.082188,74.8474315 C184.974295,72.7687392 184.753911,71.8248299 184.753911,70.5027219 C184.753911,69.3701801 184.974295,68.1427618 185.196919,67.5755571 C185.639927,65.6871781 185.971436,63.7980521 185.971436,62.4766911 C185.971436,61.6267245 185.639741,60.3993062 185.307298,59.5502734 C185.08542,58.9817613 184.974108,58.511114 184.753725,58.037852 C185.08542,57.4715811 185.307298,57.2820149 185.749559,57 C187.965906,57.0948765 188.74061,57.1895663 190.734146,58.1325418 C192.506739,60.7767579 192.838434,61.7212275 192.838434,64.9319013 L194.167272,66.9142229 C195.496296,70.785297 195.607608,71.3538091 197.712643,76.6407472 C199.484302,81.3623482 199.817678,82.0225618 200.813326,84.0990129 L201.367646,84.0990129 L208.344836,76.2625485 L209.894617,75.1300067 L210.78138,73.5242029 C218.202885,66.064443 225.069135,60.0216678 227.836815,58.6054303 L228.614507,58.5107405 Z" id="sx_logo" sketch:type="MSShapeGroup"></path>
            </g>
        </g>
    </g>
</svg>