<?xml version="1.0" encoding="UTF-8" standalone="no"?>
<svg width="1461px" height="885px" viewBox="0 0 1461 885" version="1.1" xmlns="http://www.w3.org/2000/svg" xmlns:xlink="http://www.w3.org/1999/xlink" xmlns:sketch="http://www.bohemiancoding.com/sketch/ns">
    <!-- Generator: Sketch 3.4.2 (15855) - http://www.bohemiancoding.com/sketch -->
    <title>logo</title>
    <desc>Created with Sketch.</desc>
    <defs></defs>
    <g id="images" stroke="none" stroke-width="1" fill="none" fill-rule="evenodd" sketch:type="MSPage">
        <g id="logo" sketch:type="MSArtboardGroup" fill="#FFFFFF">
            <path d="M1252.10116,497.479146 L1257.21477,497.479146 L1257.21477,355.225659 L1278.85126,355.225659 L1278.85126,517.399738 L1242.13952,517.399738 L1100.83836,375.398805 L1095.98512,375.398805 L1095.98512,517.399738 L1074.35383,517.399738 L1074.35383,355.225659 L1110.32874,355.225659 L1252.10116,497.479146 Z M1027.74224,355.276378 L1049.74224,355.276378 L1049.74224,517.450457 L1027.74224,517.450457 L1027.74224,355.276378 Z M43.3891468,466.823671 L43.3891468,470.23186 C43.8786367,488.965183 45.3445028,492.83422 53.6033431,495.989854 C59.9354679,498.445104 78.8849761,499.661012 111.985429,499.661012 C133.116813,499.661012 154.755912,498.192549 164.004147,495.989854 C174.457881,493.821006 179.571488,485.799134 179.571488,471.93986 C179.571488,457.838445 176.41584,451.506348 167.891426,448.592854 C159.869519,445.908482 159.869519,445.908482 80.5981908,445.908482 C37.8094826,445.908482 22,433.746793 22,400.68814 C22,386.11286 26.1190055,375.401409 34.1435156,368.827171 C42.4309963,362.034226 50.931978,359.370683 69.4128257,357.167988 C81.337633,355.707335 103.208459,354.733567 118.773196,354.733567 C155.242798,354.733567 173.239363,358.120927 184.437747,367.106152 C193.680774,374.435451 196.354743,382.457323 196.589073,403.362098 L174.957785,403.362098 L174.957785,400.938091 C174.957785,385.13128 172.52075,380.98886 161.335385,377.341134 C153.305668,374.667177 138.217402,373.219543 117.820253,373.219543 C56.5272642,373.219543 44.128589,377.833226 44.128589,400.938091 C44.128589,415.776341 47.0499064,420.639976 57.9879229,423.79561 C65.5229431,425.724921 78.1715706,426.961659 97.1445119,427.203799 C109.04849,427.203799 109.04849,427.203799 152.344914,427.432921 C175.936765,427.432921 187.114319,431.335805 194.651943,442.268567 C199.510391,449.082341 201.702681,458.077982 201.702681,470.23186 C201.702681,490.654957 195.604886,503.058787 182.719325,509.62261 C170.575809,515.47303 146.994372,517.894433 98.1208881,517.894433 C61.156589,517.894433 47.0499064,515.954707 37.072644,509.851732 C25.8872789,502.829665 22.2369339,494.305287 22.2369339,474.111311 C22.2369339,473.629634 22.2369339,469.747579 22.4946972,466.823671 L43.3891468,466.823671 Z M311.606183,374.193311 C353.181582,374.193311 365.595879,374.664573 378.004969,376.617317 C388.92476,378.325317 394.775206,383.18114 396.235864,392.437146 C397.70173,399.703957 398.672899,419.174116 398.672899,437.404933 C398.672899,452.469701 397.456985,469.98972 395.99893,478.74322 C394.046178,488.483506 388.92476,493.58147 379.455213,495.279055 C368.496367,497.21878 346.130844,498.445104 322.294248,498.445104 C311.840514,498.445104 284.611336,497.700457 275.852591,497.216177 C257.856026,495.989854 251.297382,494.302683 246.92582,489.678585 C241.801798,484.111963 240.098998,469.98972 240.098998,434.007159 C240.098998,402.870006 242.546448,387.550079 248.389083,382.212579 C254.713396,376.372573 271.233681,374.193311 311.606183,374.193311 Z M324.241793,354.730963 C310.155939,354.730963 282.176905,355.45478 272.457406,355.939061 C250.334024,357.404921 242.067372,359.586787 233.790306,365.676744 C221.868103,374.90411 217.973013,392.171573 217.973013,435.704744 C217.973013,461.957433 218.9572,477.045634 221.620754,487.73886 C224.552486,500.866506 235.011428,511.078055 248.133923,514.004567 C260.293061,516.686335 288.014332,517.894433 331.295134,517.894433 C380.905457,517.894433 398.909833,514.71797 408.410624,504.756372 C417.442754,495.039518 420.832732,476.793079 420.832732,436.899823 C420.832732,424.516823 420.103705,408.236146 419.135139,399.964323 C417.442754,382.683841 414.511022,374.432848 407.681596,367.869024 C397.222655,357.407524 379.702561,354.730963 324.241793,354.730963 Z M463.647477,355.225659 L463.647477,498.445104 L591.560563,498.445104 L591.560563,517.399738 L442.005774,517.399738 L442.005774,355.225659 L463.647477,355.225659 Z M603.698872,355.225659 L762.481066,355.225659 L762.481066,374.193311 L625.345782,374.193311 L625.345782,423.79561 L756.664468,423.79561 L756.664468,442.739829 L625.345782,442.739829 L625.345782,498.445104 L762.74664,498.445104 L762.74664,517.399738 L603.698872,517.399738 L603.698872,355.225659 Z M1299.18332,38.0609939 C1317.72145,43.3125732 1331.61202,47.2753415 1353.22509,51.2068659 C1396.45121,59.1245915 1414.98674,61.7542866 1435.05322,65.6962256 C1436.60501,67.0058659 1438.14638,69.6485793 1438.14638,72.2704634 C1438.14638,74.9131768 1433.52486,77.5532866 1431.96006,80.1855854 C1393.3919,81.4978293 1330.04722,88.0824817 1255.96761,144.686018 C1246.69073,152.603744 1246.69073,152.603744 1225.07767,156.535268 C1221.9793,159.146738 1217.33956,167.051445 1215.81121,172.334268 C1208.08612,178.918921 1200.36884,181.540805 1188.02745,184.1705 C1183.3825,194.71011 1181.8177,198.65986 1174.12646,205.234098 C1164.83396,218.403402 1126.25018,247.361293 1092.2801,276.308768 C1072.2006,293.438238 1044.38559,322.375299 1019.70541,346.08161 C993.452607,373.740274 973.386125,396.113512 954.8506,418.48675 C948.674695,427.706305 940.947004,438.240707 940.947004,454.042311 C940.947004,464.558488 945.589347,482.989787 968.754196,527.746677 C976.450644,543.56911 987.279306,565.942348 990.362051,576.458524 C990.362051,592.267939 991.924253,596.199463 1008.90018,606.739073 C1045.9478,664.654854 1079.90746,709.435177 1130.8743,744.97772 C1147.87105,758.113177 1178.75057,773.946024 1208.08612,773.946024 C1254.39239,773.946024 1296.09016,742.332402 1322.34296,716.009415 C1347.04397,690.993463 1365.57169,665.974909 1379.47268,643.601671 C1387.18996,643.601671 1390.2727,642.271201 1390.2727,655.461335 C1377.92089,684.419226 1370.1906,700.210415 1356.30002,723.921933 C1353.21988,727.856061 1345.50521,731.811018 1343.98206,735.750354 C1336.23093,744.97772 1331.60942,754.184256 1326.98791,763.388189 L1320.80159,769.983256 C1317.71884,776.552287 1316.15664,781.809073 1313.09733,787.091896 C1308.45238,789.732006 1302.27648,793.666134 1293.02043,798.925524 C1289.91425,804.200537 1283.74095,812.105244 1280.6556,814.745354 C1276.03409,820.020366 1266.76503,826.584189 1259.04775,831.846183 C1238.97085,848.957427 1212.71545,859.504848 1180.29976,859.504848 C1113.89056,859.504848 1064.48592,801.581256 1053.67809,783.129128 C1047.50219,771.290293 1042.87026,759.438439 1038.2201,744.975116 L1007.34579,716.006811 L993.452607,680.474683 C984.193958,672.549146 979.562029,665.974909 974.927497,659.411085 C971.834338,647.541006 965.658433,629.143555 961.036919,617.263061 C957.94376,608.04611 939.405631,576.458524 931.690958,560.669939 C923.984095,547.521463 913.155433,522.495098 905.425138,511.960695 C902.355411,506.696098 896.179506,498.799201 885.36907,498.799201 C876.113024,498.799201 866.84396,502.743744 846.767062,523.815152 C823.604817,546.198805 798.903802,573.826226 768.029486,609.389598 C752.574103,618.583116 747.939571,623.868543 740.222294,634.405549 C712.441138,655.456128 706.254818,663.329591 700.086725,675.199671 C695.452193,681.784323 686.183128,697.583323 678.465851,698.903378 L655.306209,708.0995 C652.223464,713.361494 647.60195,722.586256 641.415631,730.483152 C632.162189,734.43811 625.97587,735.745146 615.165433,737.065201 L592.016206,763.385585 C579.659189,767.348354 567.304776,772.607744 556.489132,777.872341 C539.513206,796.30364 533.332094,801.578652 524.063029,808.142476 C510.162037,812.10264 499.372429,816.065409 490.108572,820.020366 C476.202372,827.891226 466.928101,833.158427 453.034919,843.692829 C426.782117,852.899366 385.10778,867.391329 340.327264,867.391329 C286.290703,867.391329 215.273007,850.282689 165.844941,783.131732 C130.325679,741.009744 102.552334,676.524933 102.552334,606.739073 C102.552334,588.326 102.552334,577.770768 107.171244,555.405341 C110.248782,552.752213 114.875503,550.132933 116.445516,550.132933 C121.061822,550.132933 125.698958,554.085287 127.242934,556.717585 C125.696354,592.270543 127.242934,602.776305 131.869655,627.813085 C130.323075,639.662335 130.323075,644.913915 134.9524,651.508982 C134.9524,667.289756 139.586932,673.905652 148.866411,684.421829 C164.306172,713.369305 184.38307,742.33761 238.414424,764.710848 C263.120646,775.266079 297.093328,785.774445 338.767666,785.774445 C428.326094,785.774445 513.260404,750.244921 610.520486,683.099171 C667.660622,643.604274 760.301794,568.57725 828.241952,485.624689 C843.686921,467.203805 857.580103,448.793335 857.580103,432.994335 C859.108457,409.290628 803.530523,277.644445 757.211239,202.627835 L747.93176,202.627835 C735.592969,223.673207 729.417064,231.554482 724.772117,268.437909 C720.148,269.750152 717.057444,269.750152 713.972095,269.750152 C710.88935,269.750152 707.796191,268.437909 706.247007,265.808213 C690.802039,236.829494 687.729708,223.670604 687.729708,205.239305 C687.729708,189.45072 690.802039,172.339476 693.905613,164.432165 C700.081517,138.106573 704.703031,111.770567 704.703031,93.3496829 C704.703031,81.5004329 700.078914,64.389189 695.444382,52.5529573 C692.351222,44.6274207 690.799435,38.0662012 687.727105,31.4685305 C692.351222,23.5742378 695.444382,20.9315244 701.609872,17 C732.50762,18.3226585 743.307642,19.6427134 771.099213,32.7885854 C795.810642,69.6511829 800.43476,82.8178841 800.43476,127.577378 L818.95987,155.21261 C837.487583,209.17864 839.039371,217.104177 868.385332,290.808543 C893.083743,356.631634 897.731294,365.835567 911.611457,394.783043 L919.339149,394.783043 L1016.60704,285.536134 L1038.21229,269.747549 L1050.57452,247.361293 C1154.03654,143.365963 1249.75786,59.1245915 1288.34164,39.3810488 L1299.18332,38.0609939 Z" id="Shape" sketch:type="MSShapeGroup"></path>
        </g>
    </g>
</svg>