<?xml version="1.0" encoding="UTF-8" standalone="no"?>
<svg width="27px" height="28px" viewBox="0 0 27 28" version="1.1" xmlns="http://www.w3.org/2000/svg" xmlns:xlink="http://www.w3.org/1999/xlink" xmlns:sketch="http://www.bohemiancoding.com/sketch/ns">
    <!-- Generator: Sketch 3.4.2 (15855) - http://www.bohemiancoding.com/sketch -->
    <title>sx_since</title>
    <desc>Created with Sketch.</desc>
    <defs></defs>
    <g id="UnderConstruction" stroke="none" stroke-width="1" fill="none" fill-rule="evenodd" sketch:type="MSPage">
        <g id="iPhone-5/5S/5C" sketch:type="MSArtboardGroup" fill="#FFFFFF">
            <g id="landing-copy-2" sketch:type="MSLayerGroup" transform="translate(-28.000000, -28.000000)">
                <g id="sx_since" transform="translate(39.543258, 39.931833) rotate(-46.000000) translate(-39.543258, -39.931833) translate(15.523097, 37.056833)" sketch:type="MSShapeGroup">
                    <path d="M0.0572598487,5.71303739 L5.71975062,0.0483919331 L42.456389,0.0483919331 L48.0364509,5.71303739 L0.0572598487,5.71303739 Z M12.8753801,3.47250721 L12.1681237,3.47250721 C12.1650217,3.67724034 12.2022453,3.85405267 12.2797957,4.0029495 C12.3573462,4.15184633 12.4620377,4.27437417 12.5938734,4.3705367 C12.7257091,4.46669924 12.8777057,4.53726907 13.0498677,4.58224832 C13.2220296,4.62722757 13.3996174,4.64971686 13.5826365,4.64971686 C13.8090837,4.64971686 14.0083853,4.62335011 14.1805473,4.57061581 C14.3527092,4.51788152 14.4969509,4.44420972 14.6132765,4.34959819 C14.7296022,4.25498667 14.8172328,4.14254023 14.8761712,4.01225551 C14.9351095,3.88197078 14.9645782,3.74083112 14.9645782,3.58883227 C14.9645782,3.40271124 14.9250281,3.24993918 14.8459267,3.13051152 C14.7668252,3.01108386 14.6729906,2.91569826 14.56442,2.84435186 C14.4558494,2.77300546 14.3465049,2.72104745 14.2363833,2.68847627 C14.1262617,2.65590509 14.040182,2.63341581 13.9781417,2.62100774 C13.7703065,2.56827344 13.6020246,2.52484585 13.4732909,2.49072366 C13.3445572,2.45660148 13.2437431,2.4224798 13.1708457,2.38835761 C13.0979483,2.35423542 13.0490923,2.31701177 13.0242761,2.27668555 C12.99946,2.23635932 12.9870521,2.18362582 12.9870521,2.11848346 C12.9870521,2.04713706 13.002562,1.98819962 13.0335822,1.94166936 C13.0646023,1.8951391 13.1041525,1.85636447 13.1522337,1.8253443 C13.200315,1.79432412 13.253824,1.77261033 13.3127623,1.76020226 C13.3717006,1.74779419 13.4306381,1.74159025 13.4895764,1.74159025 C13.5795349,1.74159025 13.6625126,1.74934518 13.738512,1.76485526 C13.8145115,1.78036535 13.8819793,1.8067321 13.9409177,1.84395631 C13.999856,1.88118051 14.047161,1.93236303 14.0828342,1.99750539 C14.1185074,2.06264775 14.1394457,2.14484998 14.1456498,2.24411453 L14.8529062,2.24411453 C14.8529062,2.05178946 14.816458,1.88816051 14.7435606,1.75322276 C14.6706632,1.61828501 14.5721756,1.50738956 14.4480949,1.42053307 C14.3240142,1.33367659 14.1820991,1.27086168 14.0223452,1.23208647 C13.8625913,1.19331125 13.6958604,1.17392394 13.5221474,1.17392394 C13.3732506,1.17392394 13.224356,1.19408675 13.0754592,1.23441297 C12.9265623,1.27473919 12.7931776,1.33677861 12.675301,1.42053307 C12.5574243,1.50428754 12.4620387,1.60897905 12.3891413,1.73461075 C12.3162439,1.86024244 12.2797957,2.00836154 12.2797957,2.17897249 C12.2797957,2.33097134 12.308489,2.46047861 12.3658763,2.56749821 C12.4232636,2.6745178 12.4984864,2.76369946 12.5915469,2.83504585 C12.6846074,2.90639225 12.7900744,2.9645542 12.9079511,3.00953345 C13.0258277,3.0545127 13.1468046,3.09251184 13.2708853,3.12353201 C13.391864,3.1576542 13.5112898,3.18867391 13.6291665,3.21659207 C13.7470431,3.24451022 13.8525101,3.27708091 13.9455707,3.31430512 C14.0386312,3.35152933 14.113854,3.39805889 14.1712413,3.4538952 C14.2286286,3.50973151 14.2573218,3.58262782 14.2573218,3.67258632 C14.2573218,3.75634078 14.235608,3.82535963 14.1921798,3.87964493 C14.1487516,3.93393023 14.0944671,3.97658233 14.0293247,4.0076025 C13.9641823,4.03862268 13.894388,4.05956098 13.8199396,4.07041804 C13.7454912,4.0812751 13.6756968,4.08670355 13.6105545,4.08670355 C13.5143919,4.08670355 13.4213328,4.07507116 13.3313743,4.05180603 C13.2414158,4.0285409 13.1630911,3.99286824 13.0963977,3.94478697 C13.0297043,3.8967057 12.9761953,3.83389079 12.9358691,3.75634036 C12.8955429,3.67878993 12.8753801,3.58417983 12.8753801,3.47250721 Z M16.0068508,1.79742628 L16.0068508,1.25302498 L15.3461244,1.25302498 L15.3461244,1.79742628 L16.0068508,1.79742628 Z M15.3461244,2.16966649 L15.3461244,4.57526882 L16.0068508,4.57526882 L16.0068508,2.16966649 L15.3461244,2.16966649 Z M16.5279871,2.16966649 L16.5279871,4.57526882 L17.1887135,4.57526882 L17.1887135,3.31430512 C17.1887135,3.06924576 17.2290391,2.89320892 17.3096915,2.78618933 C17.390344,2.67916973 17.5206267,2.62566074 17.7005437,2.62566074 C17.8587466,2.62566074 17.9688666,2.67451678 18.0309069,2.77223032 C18.0929473,2.86994386 18.123967,3.01806296 18.123967,3.21659207 L18.123967,4.57526882 L18.7846933,4.57526882 L18.7846933,3.095614 C18.7846933,2.94671717 18.77151,2.81100595 18.7451428,2.68847627 C18.7187757,2.56594659 18.6730216,2.46203058 18.6078792,2.3767251 C18.5427369,2.29141963 18.4535552,2.22472726 18.3403316,2.17664599 C18.227108,2.12856472 18.0820908,2.10452445 17.9052758,2.10452445 C17.7656851,2.10452445 17.6291984,2.13631965 17.4958116,2.199911 C17.3624249,2.26350236 17.2538559,2.3650919 17.1701014,2.50468267 L17.1561424,2.50468267 L17.1561424,2.16966649 L16.5279871,2.16966649 Z M20.9250745,3.01651296 L21.5718419,3.01651296 C21.5625358,2.86141209 21.5253122,2.72725186 21.4601698,2.61402823 C21.3950275,2.5008046 21.3104987,2.4061945 21.2065812,2.33019508 C21.1026636,2.25419565 20.9847887,2.19758469 20.852953,2.16036048 C20.7211172,2.12313628 20.583855,2.10452445 20.4411622,2.10452445 C20.2457352,2.10452445 20.0720248,2.13709514 19.920026,2.2022375 C19.7680271,2.26737987 19.6392953,2.35811251 19.5338267,2.47443816 C19.4283582,2.5907638 19.3484824,2.7288015 19.2941971,2.88855538 C19.2399118,3.04830927 19.2127696,3.22124414 19.2127696,3.40736517 C19.2127696,3.58728217 19.2422383,3.75246211 19.3011766,3.90290995 C19.3601149,4.05335778 19.4423172,4.18286506 19.5477858,4.29143566 C19.6532543,4.40000626 19.7812106,4.48453496 19.9316585,4.5450243 C20.0821063,4.60551364 20.2472862,4.63575785 20.4272032,4.63575785 C20.746711,4.63575785 21.0088275,4.55200464 21.2135607,4.38449571 C21.4182938,4.21698678 21.5423726,3.97348208 21.5858009,3.65397431 L20.9483395,3.65397431 C20.9266254,3.80287113 20.8731164,3.92152151 20.7878109,4.009929 C20.7025055,4.0983365 20.5807531,4.14253958 20.4225502,4.14253958 C20.3201837,4.14253958 20.2333285,4.1192748 20.1619821,4.07274454 C20.0906357,4.02621428 20.0340247,3.96650135 19.9921475,3.89360394 C19.9502703,3.82070654 19.9200261,3.7392798 19.901414,3.64932131 C19.8828018,3.55936281 19.8734959,3.47095664 19.8734959,3.38410016 C19.8734959,3.29414166 19.8828018,3.20340902 19.901414,3.11189951 C19.9200261,3.02039 19.9518213,2.93663679 19.9968005,2.86063737 C20.0417798,2.78463795 20.0999417,2.72259853 20.1712881,2.67451727 C20.2426345,2.626436 20.3310407,2.60239573 20.4365092,2.60239573 C20.7187928,2.60239573 20.8816463,2.74043342 20.9250745,3.01651296 L20.9250745,3.01651296 Z M23.577286,3.11422601 L22.5024424,3.11422601 C22.5055444,3.06769575 22.5156258,3.01496225 22.5326869,2.95602392 C22.549748,2.89708559 22.5792167,2.84125012 22.621094,2.78851583 C22.6629712,2.73578154 22.7188067,2.69157845 22.788602,2.65590526 C22.8583974,2.62023206 22.9460281,2.60239573 23.0514967,2.60239573 C23.2128016,2.60239573 23.333003,2.64582332 23.4121044,2.7326798 C23.4912058,2.81953628 23.5462658,2.94671708 23.577286,3.11422601 L23.577286,3.11422601 Z M22.5024424,3.53299624 L24.2380123,3.53299624 C24.2504204,3.34687521 24.2349106,3.16851189 24.1914823,2.99790094 C24.1480541,2.82729 24.0774842,2.67529343 23.9797707,2.54190669 C23.8820572,2.40851995 23.7572028,2.30227746 23.605204,2.22317602 C23.4532052,2.14407458 23.2748418,2.10452445 23.0701087,2.10452445 C22.8870897,2.10452445 22.7203588,2.13709514 22.5699109,2.2022375 C22.4194631,2.26737987 22.2899558,2.35656152 22.1813852,2.46978515 C22.0728146,2.58300878 21.9890614,2.71716901 21.9301231,2.87226988 C21.8711847,3.02737074 21.841716,3.19487715 21.841716,3.37479415 C21.841716,3.56091519 21.8704093,3.73152358 21.9277966,3.88662444 C21.9851839,4.0417253 22.0666106,4.17511004 22.1720792,4.28678266 C22.2775478,4.39845528 22.4062796,4.48453496 22.5582784,4.5450243 C22.7102773,4.60551364 22.8808857,4.63575785 23.0701087,4.63575785 C23.3430862,4.63575785 23.575734,4.57371844 23.7680591,4.44963775 C23.9603842,4.32555706 24.1030748,4.11927601 24.1961353,3.83078841 L23.61451,3.83078841 C23.5927959,3.90523682 23.5338584,3.97580665 23.4376959,4.04250002 C23.3415334,4.10919339 23.2267605,4.14253958 23.0933737,4.14253958 C22.9072527,4.14253958 22.764562,4.09445903 22.6652975,3.9982965 C22.5660329,3.90213396 22.5117484,3.74703543 22.5024424,3.53299624 L22.5024424,3.53299624 Z M25.8432982,2.56982471 L26.4761066,2.56982471 C26.4761066,2.48296823 26.484637,2.39533755 26.5016981,2.30693006 C26.5187592,2.21852257 26.5474524,2.13787133 26.5877786,2.06497393 C26.6281049,1.99207652 26.6816139,1.93313908 26.7483072,1.88815983 C26.8150006,1.84318058 26.8964273,1.82069129 26.9925899,1.82069129 C27.1352827,1.82069129 27.2523821,1.86489438 27.3438916,1.95330187 C27.4354011,2.04170936 27.4811551,2.16501269 27.4811551,2.32321557 C27.4811551,2.42248012 27.4586659,2.51088629 27.4136866,2.58843672 C27.3687074,2.66598715 27.3128719,2.73578149 27.2461785,2.79782183 C27.1794851,2.85986218 27.1058133,2.91647314 27.0251609,2.96765643 C26.9445084,3.01883971 26.8685102,3.06924674 26.7971638,3.11887901 C26.657573,3.21504155 26.5249637,3.30965165 26.399332,3.40271217 C26.2737003,3.49577269 26.1643559,3.59736223 26.0712954,3.70748384 C25.9782348,3.81760545 25.904563,3.94245977 25.8502777,4.08205054 C25.7959924,4.22164132 25.7688502,4.38604577 25.7688502,4.57526882 L28.1604935,4.57526882 L28.1604935,4.0076025 L26.6203497,4.0076025 C26.7010021,3.89592988 26.7940612,3.79821781 26.8995298,3.71446334 C27.0049984,3.63070888 27.1135674,3.55238412 27.22524,3.47948671 C27.3369126,3.40658931 27.4478081,3.3329175 27.5579297,3.25846909 C27.6680513,3.18402068 27.7665389,3.10104296 27.8533953,3.00953345 C27.9402518,2.91802394 28.0100462,2.81333243 28.0627805,2.69545578 C28.1155148,2.57757912 28.1418815,2.43643946 28.1418815,2.27203254 C28.1418815,2.11382967 28.1116373,1.97113901 28.051148,1.84395631 C27.9906586,1.7167736 27.9092319,1.60975561 27.8068653,1.52289913 C27.7044988,1.43604265 27.5858484,1.36935028 27.4509106,1.32282002 C27.3159729,1.27628976 27.1740577,1.25302498 27.0251609,1.25302498 C26.8297338,1.25302498 26.6567989,1.28637117 26.5063511,1.35306454 C26.3559033,1.41975791 26.2310489,1.51281703 26.1317844,1.63224469 C26.0325198,1.75167235 25.9580725,1.89126103 25.9084403,2.05101492 C25.858808,2.21076881 25.8370942,2.38370367 25.8432982,2.56982471 L25.8432982,2.56982471 Z M29.016646,2.93275891 C29.016646,2.8769226 29.0174215,2.80945474 29.0189725,2.7303533 C29.0205235,2.65125186 29.0259519,2.56982513 29.035258,2.48607066 C29.0445641,2.4023162 29.0600739,2.31933848 29.081788,2.23713502 C29.1035021,2.15493157 29.1337464,2.08125976 29.1725216,2.0161174 C29.2112968,1.95097504 29.2609283,1.89824154 29.3214177,1.85791531 C29.381907,1.81758909 29.4571298,1.79742628 29.5470883,1.79742628 C29.6370468,1.79742628 29.7130451,1.81758909 29.7750854,1.85791531 C29.8371258,1.89824154 29.8883083,1.95097504 29.9286345,2.0161174 C29.9689607,2.08125976 29.9992049,2.15493157 30.019368,2.23713502 C30.0395312,2.31933848 30.055041,2.4023162 30.0658981,2.48607066 C30.0767551,2.56982513 30.0829591,2.65125186 30.0845101,2.7303533 C30.0860611,2.80945474 30.0868366,2.8769226 30.0868366,2.93275891 C30.0868366,3.02581943 30.0837346,3.13826586 30.0775306,3.2701016 C30.0713265,3.40193733 30.0519392,3.52911813 30.019368,3.65164781 C29.9867969,3.77417749 29.9340634,3.878869 29.861166,3.96572548 C29.7882686,4.05258196 29.683577,4.09600955 29.5470883,4.09600955 C29.4137015,4.09600955 29.3113365,4.05258196 29.2399901,3.96572548 C29.1686437,3.878869 29.1166857,3.77417749 29.0841145,3.65164781 C29.0515433,3.52911813 29.032156,3.40193733 29.025952,3.2701016 C29.019748,3.13826586 29.016646,3.02581943 29.016646,2.93275891 L29.016646,2.93275891 Z M28.3559196,2.93275891 C28.3559196,3.25847072 28.3877148,3.53066865 28.4513062,3.74936086 C28.5148975,3.96805307 28.6009772,4.14253893 28.7095478,4.27282365 C28.8181184,4.40310837 28.9445237,4.49616749 29.0887675,4.5520038 C29.2330113,4.60784011 29.3857834,4.63575785 29.5470883,4.63575785 C29.7114952,4.63575785 29.8658182,4.60784011 30.010062,4.5520038 C30.1543058,4.49616749 30.2814866,4.40310837 30.3916083,4.27282365 C30.5017299,4.14253893 30.588585,3.96805307 30.6521764,3.74936086 C30.7157677,3.53066865 30.7475629,3.25847072 30.7475629,2.93275891 C30.7475629,2.61635315 30.7157677,2.35035916 30.6521764,2.13476897 C30.588585,1.91917877 30.5017299,1.7462439 30.3916083,1.61595918 C30.2814866,1.48567446 30.1543058,1.39261534 30.010062,1.33677903 C29.8658182,1.28094272 29.7114952,1.25302498 29.5470883,1.25302498 C29.3857834,1.25302498 29.2330113,1.28094272 29.0887675,1.33677903 C28.9445237,1.39261534 28.8181184,1.48567446 28.7095478,1.61595918 C28.6009772,1.7462439 28.5148975,1.91917877 28.4513062,2.13476897 C28.3877148,2.35035916 28.3559196,2.61635315 28.3559196,2.93275891 L28.3559196,2.93275891 Z M31.6037154,2.93275891 C31.6037154,2.8769226 31.6044909,2.80945474 31.6060419,2.7303533 C31.6075929,2.65125186 31.6130214,2.56982513 31.6223274,2.48607066 C31.6316335,2.4023162 31.6471433,2.31933848 31.6688575,2.23713502 C31.6905716,2.15493157 31.7208158,2.08125976 31.759591,2.0161174 C31.7983662,1.95097504 31.8479978,1.89824154 31.9084871,1.85791531 C31.9689764,1.81758909 32.0441992,1.79742628 32.1341577,1.79742628 C32.2241162,1.79742628 32.3001145,1.81758909 32.3621548,1.85791531 C32.4241952,1.89824154 32.4753777,1.95097504 32.5157039,2.0161174 C32.5560302,2.08125976 32.5862744,2.15493157 32.6064375,2.23713502 C32.6266006,2.31933848 32.6421104,2.4023162 32.6529675,2.48607066 C32.6638246,2.56982513 32.6700285,2.65125186 32.6715795,2.7303533 C32.6731305,2.80945474 32.673906,2.8769226 32.673906,2.93275891 C32.673906,3.02581943 32.670804,3.13826586 32.6646,3.2701016 C32.658396,3.40193733 32.6390087,3.52911813 32.6064375,3.65164781 C32.5738663,3.77417749 32.5211328,3.878869 32.4482354,3.96572548 C32.375338,4.05258196 32.2706465,4.09600955 32.1341577,4.09600955 C32.000771,4.09600955 31.8984059,4.05258196 31.8270595,3.96572548 C31.7557131,3.878869 31.7037551,3.77417749 31.671184,3.65164781 C31.6386128,3.52911813 31.6192255,3.40193733 31.6130214,3.2701016 C31.6068174,3.13826586 31.6037154,3.02581943 31.6037154,2.93275891 L31.6037154,2.93275891 Z M30.9429891,2.93275891 C30.9429891,3.25847072 30.9747843,3.53066865 31.0383756,3.74936086 C31.101967,3.96805307 31.1880466,4.14253893 31.2966173,4.27282365 C31.4051879,4.40310837 31.5315932,4.49616749 31.675837,4.5520038 C31.8200808,4.60784011 31.9728528,4.63575785 32.1341577,4.63575785 C32.2985646,4.63575785 32.4528877,4.60784011 32.5971315,4.5520038 C32.7413753,4.49616749 32.8685561,4.40310837 32.9786777,4.27282365 C33.0887993,4.14253893 33.1756545,3.96805307 33.2392458,3.74936086 C33.3028372,3.53066865 33.3346324,3.25847072 33.3346324,2.93275891 C33.3346324,2.61635315 33.3028372,2.35035916 33.2392458,2.13476897 C33.1756545,1.91917877 33.0887993,1.7462439 32.9786777,1.61595918 C32.8685561,1.48567446 32.7413753,1.39261534 32.5971315,1.33677903 C32.4528877,1.28094272 32.2985646,1.25302498 32.1341577,1.25302498 C31.9728528,1.25302498 31.8200808,1.28094272 31.675837,1.33677903 C31.5315932,1.39261534 31.4051879,1.48567446 31.2966173,1.61595918 C31.1880466,1.7462439 31.101967,1.91917877 31.0383756,2.13476897 C30.9747843,2.35035916 30.9429891,2.61635315 30.9429891,2.93275891 L30.9429891,2.93275891 Z M35.2563224,4.57526882 L35.2563224,1.31816702 L34.7305332,1.31816702 C34.711921,1.44224771 34.6731464,1.54616372 34.6142081,1.62991819 C34.5552698,1.71367265 34.4831489,1.78114052 34.3978435,1.8323238 C34.312538,1.88350708 34.2163769,1.91917975 34.1093573,1.93934286 C34.0023377,1.95950597 33.8914423,1.96803639 33.7766676,1.96493437 L33.7766676,2.46280565 L34.5955961,2.46280565 L34.5955961,4.57526882 L35.2563224,4.57526882 Z" id="Rectangle-4"></path>
                </g>
            </g>
        </g>
    </g>
</svg>