<?xml version="1.0" encoding="UTF-8" standalone="no"?>
<svg width="255px" height="50px" viewBox="0 0 255 50" version="1.1" xmlns="http://www.w3.org/2000/svg" xmlns:xlink="http://www.w3.org/1999/xlink" xmlns:sketch="http://www.bohemiancoding.com/sketch/ns">
    <!-- Generator: Sketch 3.4.2 (15855) - http://www.bohemiancoding.com/sketch -->
    <title>sx_titel</title>
    <desc>Created with Sketch.</desc>
    <defs></defs>
    <g id="UnderConstruction" stroke="none" stroke-width="1" fill="none" fill-rule="evenodd" sketch:type="MSPage">
        <g id="iPhone-5/5S/5C" sketch:type="MSArtboardGroup" transform="translate(-33.000000, -126.000000)" fill="#FFFFFF">
            <g id="landing-copy-2" sketch:type="MSLayerGroup" transform="translate(-28.000000, -28.000000)">
                <path d="M61.328,171 L63.464,171 L63.464,163.824 L75.776,163.824 L75.776,161.952 L63.464,161.952 L63.464,156.864 L76.352,156.864 L76.352,154.992 L61.328,154.992 L61.328,171 Z M77.288,159.888 L77.288,166.032 C77.288,168.336 77.576,169.392 78.368,170.088 C79.232,170.856 80.648,171.144 83.384,171.144 C86.84,171.144 87.992,170.76 88.88,169.344 L88.976,169.344 L88.976,171 L90.728,171 L90.728,159.888 L88.976,159.888 L88.976,165.384 C88.976,166.992 88.832,167.736 88.352,168.288 C87.608,169.248 86.24,169.608 83.576,169.608 C81.512,169.608 80.48,169.392 79.856,168.864 C79.208,168.288 79.04,167.592 79.04,165.504 L79.04,159.888 L77.288,159.888 Z M92.72,154.992 L92.72,171 L94.472,171 L94.472,154.992 L92.72,154.992 Z M96.56,154.992 L96.56,171 L98.312,171 L98.312,154.992 L96.56,154.992 Z M99.368,164.304 L99.368,166.368 L108.776,166.368 L108.776,164.304 L99.368,164.304 Z M109.544,166.008 C109.52,166.296 109.52,166.68 109.52,166.728 C109.52,168.72 109.88,169.56 110.984,170.256 C111.968,170.856 113.36,171.048 117.008,171.048 C121.832,171.048 124.16,170.808 125.36,170.232 C126.632,169.584 127.232,168.36 127.232,166.344 C127.232,165.144 127.016,164.256 126.536,163.584 C125.792,162.504 124.688,162.12 122.36,162.12 C118.088,162.096 118.088,162.096 116.912,162.096 C115.04,162.072 113.792,161.952 113.048,161.76 C111.968,161.448 111.68,160.968 111.68,159.504 C111.68,157.224 112.904,156.768 118.952,156.768 C120.968,156.768 122.456,156.912 123.248,157.176 C124.352,157.536 124.592,157.944 124.592,159.504 L124.592,159.744 L126.728,159.744 C126.704,157.68 126.44,156.888 125.528,156.168 C124.424,155.28 122.648,154.944 119.048,154.944 C117.512,154.944 115.352,155.04 114.176,155.184 C112.352,155.4 111.512,155.664 110.696,156.336 C109.904,156.984 109.496,158.04 109.496,159.48 C109.496,162.744 111.056,163.944 115.28,163.944 C123.104,163.944 123.104,163.944 123.896,164.208 C124.736,164.496 125.048,165.12 125.048,166.512 C125.048,167.88 124.544,168.672 123.512,168.888 C122.6,169.104 120.464,169.248 118.376,169.248 C115.112,169.248 113.24,169.128 112.616,168.888 C111.8,168.576 111.656,168.192 111.608,166.344 L111.608,166.008 L109.544,166.008 Z M130.712,157.128 L130.712,159.888 L127.976,159.888 L127.976,161.4 L130.712,161.4 L130.712,166.776 C130.712,168.528 130.856,169.224 131.336,169.896 C131.984,170.784 133.256,171.144 135.632,171.144 C137.984,171.144 139.184,170.76 139.832,169.776 C140.288,169.104 140.432,168.384 140.432,166.656 L140.432,165.96 L138.68,165.96 L138.68,166.656 C138.68,168.024 138.608,168.432 138.344,168.84 C137.96,169.44 137.36,169.608 135.8,169.608 C134.12,169.608 133.328,169.392 132.872,168.84 C132.512,168.384 132.512,168.312 132.464,166.2 L132.464,161.4 L140.24,161.4 L140.24,159.888 L132.464,159.888 L132.464,157.128 L130.712,157.128 Z M143.912,163.224 L143.912,163.08 C143.936,161.544 144.608,161.28 148.424,161.28 C151.328,161.28 152.336,161.496 152.96,162.264 C153.368,162.744 153.488,163.224 153.488,164.376 L153.488,165.576 L153.344,165.576 C152.576,164.52 151.808,164.376 147.248,164.376 C144.896,164.376 143.84,164.472 143.168,164.736 C142.016,165.168 141.584,166.032 141.584,167.784 C141.584,169.128 141.824,169.8 142.544,170.376 C143.36,171 144.416,171.144 148.4,171.144 C151.784,171.144 152.6,170.904 153.44,169.704 L153.512,169.704 L153.488,171 L155.24,171 L155.24,165.144 C155.24,162.504 155.072,161.76 154.304,160.992 C153.368,160.008 152.072,159.744 148.304,159.744 C143.48,159.744 142.064,160.416 142.064,162.744 L142.064,163.224 L143.912,163.224 Z M148.4,165.936 C152.312,165.936 153.368,166.32 153.368,167.76 C153.368,169.248 152.48,169.608 148.76,169.608 C146.024,169.608 144.824,169.536 144.32,169.32 C143.696,169.056 143.456,168.624 143.456,167.808 C143.456,167.088 143.672,166.608 144.104,166.32 C144.608,166.008 145.448,165.936 148.4,165.936 L148.4,165.936 Z M168.992,166.968 C168.92,169.128 168.128,169.584 164.528,169.584 C162.2,169.584 160.856,169.44 160.16,169.104 C159.152,168.648 158.72,167.568 158.72,165.576 C158.72,161.952 159.512,161.28 163.808,161.28 C167.888,161.28 168.848,161.76 168.896,163.848 L170.72,163.848 C170.648,162.408 170.408,161.64 169.76,160.992 C168.872,160.056 167.36,159.744 163.808,159.744 C161.144,159.744 159.848,159.936 158.888,160.464 C157.496,161.232 156.848,162.792 156.848,165.456 C156.848,167.76 157.352,169.248 158.384,170.088 C159.368,170.904 160.904,171.144 164.864,171.144 C167.744,171.144 168.992,170.832 169.856,169.92 C170.504,169.248 170.768,168.456 170.792,166.968 L168.992,166.968 Z M172.424,154.992 L172.424,171 L174.176,171 L174.176,165.72 L175.088,165.72 L182.912,171 L185.84,171 L176.96,164.952 L184.712,159.888 L181.928,159.888 L175.208,164.16 L174.176,164.16 L174.176,154.992 L172.424,154.992 Z M192.464,166.008 C192.44,166.296 192.44,166.68 192.44,166.728 C192.44,168.72 192.8,169.56 193.904,170.256 C194.888,170.856 196.28,171.048 199.928,171.048 C204.752,171.048 207.08,170.808 208.28,170.232 C209.552,169.584 210.152,168.36 210.152,166.344 C210.152,165.144 209.936,164.256 209.456,163.584 C208.712,162.504 207.608,162.12 205.28,162.12 C201.008,162.096 201.008,162.096 199.832,162.096 C197.96,162.072 196.712,161.952 195.968,161.76 C194.888,161.448 194.6,160.968 194.6,159.504 C194.6,157.224 195.824,156.768 201.872,156.768 C203.888,156.768 205.376,156.912 206.168,157.176 C207.272,157.536 207.512,157.944 207.512,159.504 L207.512,159.744 L209.648,159.744 C209.624,157.68 209.36,156.888 208.448,156.168 C207.344,155.28 205.568,154.944 201.968,154.944 C200.432,154.944 198.272,155.04 197.096,155.184 C195.272,155.4 194.432,155.664 193.616,156.336 C192.824,156.984 192.416,158.04 192.416,159.48 C192.416,162.744 193.976,163.944 198.2,163.944 C206.024,163.944 206.024,163.944 206.816,164.208 C207.656,164.496 207.968,165.12 207.968,166.512 C207.968,167.88 207.464,168.672 206.432,168.888 C205.52,169.104 203.384,169.248 201.296,169.248 C198.032,169.248 196.16,169.128 195.536,168.888 C194.72,168.576 194.576,168.192 194.528,166.344 L194.528,166.008 L192.464,166.008 Z M218.408,159.744 C215.888,159.744 214.64,159.912 213.728,160.392 C212.264,161.16 211.592,162.744 211.592,165.384 C211.592,168.12 212.144,169.536 213.56,170.352 C214.568,170.952 215.936,171.144 219.2,171.144 C222.032,171.144 223.28,170.976 224.24,170.424 C225.632,169.632 226.232,168.12 226.232,165.432 C226.232,162.84 225.68,161.4 224.336,160.536 C223.376,159.936 222.008,159.744 218.408,159.744 L218.408,159.744 Z M218.696,161.28 C220.952,161.28 222.152,161.4 222.824,161.712 C223.952,162.216 224.36,163.2 224.36,165.384 C224.36,167.328 224.072,168.312 223.352,168.888 C222.632,169.44 221.648,169.608 219.056,169.608 C216.992,169.608 215.936,169.512 215.216,169.248 C213.92,168.792 213.464,167.808 213.464,165.504 C213.464,161.928 214.256,161.28 218.696,161.28 L218.696,161.28 Z M226.784,161.4 L229.28,161.4 L229.28,171 L231.032,171 L231.032,161.4 L236.648,161.4 L236.648,159.888 L231.08,159.888 L231.104,159.504 C231.104,156.984 231.608,156.576 234.752,156.528 L236.648,156.456 L236.648,154.944 L234.632,155.016 C230.24,155.112 229.28,156 229.28,159.888 L226.784,159.888 L226.784,161.4 Z M240.056,157.128 L240.056,159.888 L237.32,159.888 L237.32,161.4 L240.056,161.4 L240.056,166.776 C240.056,168.528 240.2,169.224 240.68,169.896 C241.328,170.784 242.6,171.144 244.976,171.144 C247.328,171.144 248.528,170.76 249.176,169.776 C249.632,169.104 249.776,168.384 249.776,166.656 L249.776,165.96 L248.024,165.96 L248.024,166.656 C248.024,168.024 247.952,168.432 247.688,168.84 C247.304,169.44 246.704,169.608 245.144,169.608 C243.464,169.608 242.672,169.392 242.216,168.84 C241.856,168.384 241.856,168.312 241.808,166.2 L241.808,161.4 L249.584,161.4 L249.584,159.888 L241.808,159.888 L241.808,157.128 L240.056,157.128 Z M249.776,159.888 L254.912,171 L257.504,171 L260.888,161.544 L261.056,161.544 L264.488,171 L267.104,171 L272.264,159.888 L270.224,159.888 L265.952,169.392 L265.76,169.392 L262.352,159.888 L259.592,159.888 L256.232,169.392 L256.064,169.392 L251.744,159.888 L249.776,159.888 Z M274.808,163.224 L274.808,163.08 C274.832,161.544 275.504,161.28 279.32,161.28 C282.224,161.28 283.232,161.496 283.856,162.264 C284.264,162.744 284.384,163.224 284.384,164.376 L284.384,165.576 L284.24,165.576 C283.472,164.52 282.704,164.376 278.144,164.376 C275.792,164.376 274.736,164.472 274.064,164.736 C272.912,165.168 272.48,166.032 272.48,167.784 C272.48,169.128 272.72,169.8 273.44,170.376 C274.256,171 275.312,171.144 279.296,171.144 C282.68,171.144 283.496,170.904 284.336,169.704 L284.408,169.704 L284.384,171 L286.136,171 L286.136,165.144 C286.136,162.504 285.968,161.76 285.2,160.992 C284.264,160.008 282.968,159.744 279.2,159.744 C274.376,159.744 272.96,160.416 272.96,162.744 L272.96,163.224 L274.808,163.224 Z M279.296,165.936 C283.208,165.936 284.264,166.32 284.264,167.76 C284.264,169.248 283.376,169.608 279.656,169.608 C276.92,169.608 275.72,169.536 275.216,169.32 C274.592,169.056 274.352,168.624 274.352,167.808 C274.352,167.088 274.568,166.608 275,166.32 C275.504,166.008 276.344,165.936 279.296,165.936 L279.296,165.936 Z M287.984,159.888 L287.984,171 L289.736,171 L289.736,165.864 C289.736,161.952 290.48,161.28 294.704,161.28 C297.44,161.28 298.04,161.784 298.04,164.088 L298.04,164.88 L299.84,164.88 L299.84,163.728 C299.84,162.288 299.456,161.232 298.712,160.584 C297.968,159.936 297.08,159.744 294.896,159.744 C292.784,159.744 291.848,159.84 291.176,160.176 C290.576,160.464 290.144,160.848 289.856,161.376 L289.736,161.376 L289.736,159.888 L287.984,159.888 Z M313.376,167.568 C313.304,168.288 313.256,168.48 312.968,168.768 C312.392,169.416 311.408,169.608 308.888,169.608 C305.552,169.608 304.352,169.392 303.68,168.696 C303.152,168.144 302.912,167.28 302.864,165.84 L315.248,165.84 C315.2,163.2 314.96,162.192 314.12,161.208 C313.088,160.056 311.768,159.744 307.928,159.744 C305.24,159.744 303.968,159.912 303.056,160.416 C301.616,161.208 300.968,162.768 300.968,165.48 C300.968,167.76 301.496,169.296 302.552,170.112 C303.536,170.88 305.24,171.144 309.08,171.144 C313.592,171.144 315.152,170.232 315.224,167.568 L313.376,167.568 Z M302.912,164.328 C303.104,161.856 304.04,161.28 307.88,161.28 C312.2,161.28 313.28,161.88 313.304,164.328 L302.912,164.328 Z M102.992,199 L114.2,199 C118.712,199 119.936,198.76 121.088,197.68 C122.288,196.552 122.792,194.536 122.792,190.984 C122.792,187.216 122.456,185.656 121.4,184.528 C120.2,183.256 118.976,182.992 114.032,182.992 L102.992,182.992 L102.992,199 Z M105.128,197.128 L105.128,184.864 L113.984,184.864 C115.784,184.864 116.48,184.864 116.912,184.912 C118.376,185.008 119.12,185.296 119.648,185.92 C120.272,186.712 120.608,188.416 120.608,190.888 C120.608,194.776 119.912,196.504 118.184,196.912 C117.296,197.128 117.2,197.128 114.104,197.128 L105.128,197.128 Z M136.784,195.568 C136.712,196.288 136.664,196.48 136.376,196.768 C135.8,197.416 134.816,197.608 132.296,197.608 C128.96,197.608 127.76,197.392 127.088,196.696 C126.56,196.144 126.32,195.28 126.272,193.84 L138.656,193.84 C138.608,191.2 138.368,190.192 137.528,189.208 C136.496,188.056 135.176,187.744 131.336,187.744 C128.648,187.744 127.376,187.912 126.464,188.416 C125.024,189.208 124.376,190.768 124.376,193.48 C124.376,195.76 124.904,197.296 125.96,198.112 C126.944,198.88 128.648,199.144 132.488,199.144 C137,199.144 138.56,198.232 138.632,195.568 L136.784,195.568 Z M126.32,192.328 C126.512,189.856 127.448,189.28 131.288,189.28 C135.608,189.28 136.688,189.88 136.712,192.328 L126.32,192.328 Z M138.8,187.888 L145.208,199 L147.488,199 L153.968,187.888 L151.832,187.888 L146.432,197.368 L146.24,197.368 L140.864,187.888 L138.8,187.888 Z M166.52,195.568 C166.448,196.288 166.4,196.48 166.112,196.768 C165.536,197.416 164.552,197.608 162.032,197.608 C158.696,197.608 157.496,197.392 156.824,196.696 C156.296,196.144 156.056,195.28 156.008,193.84 L168.392,193.84 C168.344,191.2 168.104,190.192 167.264,189.208 C166.232,188.056 164.912,187.744 161.072,187.744 C158.384,187.744 157.112,187.912 156.2,188.416 C154.76,189.208 154.112,190.768 154.112,193.48 C154.112,195.76 154.64,197.296 155.696,198.112 C156.68,198.88 158.384,199.144 162.224,199.144 C166.736,199.144 168.296,198.232 168.368,195.568 L166.52,195.568 Z M156.056,192.328 C156.248,189.856 157.184,189.28 161.024,189.28 C165.344,189.28 166.424,189.88 166.448,192.328 L156.056,192.328 Z M170.048,182.992 L170.048,199 L171.8,199 L171.8,182.992 L170.048,182.992 Z M180.392,187.744 C177.872,187.744 176.624,187.912 175.712,188.392 C174.248,189.16 173.576,190.744 173.576,193.384 C173.576,196.12 174.128,197.536 175.544,198.352 C176.552,198.952 177.92,199.144 181.184,199.144 C184.016,199.144 185.264,198.976 186.224,198.424 C187.616,197.632 188.216,196.12 188.216,193.432 C188.216,190.84 187.664,189.4 186.32,188.536 C185.36,187.936 183.992,187.744 180.392,187.744 L180.392,187.744 Z M180.68,189.28 C182.936,189.28 184.136,189.4 184.808,189.712 C185.936,190.216 186.344,191.2 186.344,193.384 C186.344,195.328 186.056,196.312 185.336,196.888 C184.616,197.44 183.632,197.608 181.04,197.608 C178.976,197.608 177.92,197.512 177.2,197.248 C175.904,196.792 175.448,195.808 175.448,193.504 C175.448,189.928 176.24,189.28 180.68,189.28 L180.68,189.28 Z M189.896,203.008 L191.648,203.008 L191.648,197.68 L191.744,197.68 C192.584,198.832 193.64,199.144 196.856,199.144 C199.904,199.144 201.344,198.952 202.256,198.424 C203.696,197.584 204.32,196.072 204.32,193.456 C204.32,190.792 203.792,189.424 202.448,188.584 C201.44,187.936 200.168,187.744 197.048,187.744 C193.544,187.744 192.536,188.032 191.744,189.328 L191.648,189.328 L191.648,187.888 L189.896,187.888 L189.896,203.008 Z M197.456,189.28 C201.656,189.28 202.448,189.952 202.448,193.48 C202.448,195.376 202.136,196.36 201.344,196.936 C200.648,197.44 199.52,197.608 196.808,197.608 C192.392,197.608 191.6,196.96 191.6,193.336 C191.6,191.488 191.912,190.528 192.704,189.928 C193.376,189.448 194.552,189.28 197.456,189.28 L197.456,189.28 Z M206,187.888 L206,199 L207.752,199 L207.752,194.632 C207.752,191.872 207.896,190.912 208.448,190.288 C209.096,189.568 210.2,189.28 212.432,189.28 C214.52,189.28 215.6,189.52 216.224,190.096 C216.68,190.552 216.824,191.152 216.824,192.76 L216.824,199 L218.576,199 L218.576,194.632 C218.576,191.92 218.744,190.984 219.368,190.264 C219.968,189.544 221.024,189.28 223.256,189.28 C226.928,189.28 227.624,189.832 227.624,192.76 L227.624,199 L229.376,199 L229.376,193.144 C229.376,190.552 229.232,189.904 228.512,189.088 C227.576,188.08 226.304,187.744 223.28,187.744 C220.088,187.744 218.816,188.224 218.096,189.688 C217.208,188.176 215.96,187.744 212.336,187.744 C209.624,187.744 208.88,188.008 207.776,189.352 L207.776,187.888 L206,187.888 Z M243.392,195.568 C243.32,196.288 243.272,196.48 242.984,196.768 C242.408,197.416 241.424,197.608 238.904,197.608 C235.568,197.608 234.368,197.392 233.696,196.696 C233.168,196.144 232.928,195.28 232.88,193.84 L245.264,193.84 C245.216,191.2 244.976,190.192 244.136,189.208 C243.104,188.056 241.784,187.744 237.944,187.744 C235.256,187.744 233.984,187.912 233.072,188.416 C231.632,189.208 230.984,190.768 230.984,193.48 C230.984,195.76 231.512,197.296 232.568,198.112 C233.552,198.88 235.256,199.144 239.096,199.144 C243.608,199.144 245.168,198.232 245.24,195.568 L243.392,195.568 Z M232.928,192.328 C233.12,189.856 234.056,189.28 237.896,189.28 C242.216,189.28 243.296,189.88 243.32,192.328 L232.928,192.328 Z M246.848,187.888 L246.848,199 L248.6,199 L248.6,193.864 C248.6,191.752 248.696,191.224 249.248,190.576 C250.016,189.64 251.408,189.28 254.144,189.28 C256.568,189.28 257.672,189.544 258.248,190.24 C258.752,190.816 258.872,191.488 258.872,193.48 L258.872,199 L260.624,199 L260.624,192.736 C260.624,190.648 260.384,189.712 259.712,188.968 C258.848,188.032 257.528,187.744 254.336,187.744 C250.688,187.744 249.464,188.128 248.744,189.568 L248.6,189.568 L248.6,187.888 L246.848,187.888 Z M264.176,185.128 L264.176,187.888 L261.44,187.888 L261.44,189.4 L264.176,189.4 L264.176,194.776 C264.176,196.528 264.32,197.224 264.8,197.896 C265.448,198.784 266.72,199.144 269.096,199.144 C271.448,199.144 272.648,198.76 273.296,197.776 C273.752,197.104 273.896,196.384 273.896,194.656 L273.896,193.96 L272.144,193.96 L272.144,194.656 C272.144,196.024 272.072,196.432 271.808,196.84 C271.424,197.44 270.824,197.608 269.264,197.608 C267.584,197.608 266.792,197.392 266.336,196.84 C265.976,196.384 265.976,196.312 265.928,194.2 L265.928,189.4 L273.704,189.4 L273.704,187.888 L265.928,187.888 L265.928,185.128 L264.176,185.128 Z" id="sx_titel" sketch:type="MSShapeGroup"></path>
            </g>
        </g>
    </g>
</svg>