<?xml version="1.0" encoding="UTF-8" standalone="no"?>
<svg width="165px" height="10px" viewBox="0 0 165 10" version="1.1" xmlns="http://www.w3.org/2000/svg" xmlns:xlink="http://www.w3.org/1999/xlink" xmlns:sketch="http://www.bohemiancoding.com/sketch/ns">
    <!-- Generator: Sketch 3.4.2 (15855) - http://www.bohemiancoding.com/sketch -->
    <title>sx_uc</title>
    <desc>Created with Sketch.</desc>
    <defs></defs>
    <g id="UnderConstruction" stroke="none" stroke-width="1" fill="none" fill-rule="evenodd" sketch:type="MSPage">
        <g id="iPhone-5/5S/5C" sketch:type="MSArtboardGroup" transform="translate(-77.000000, -205.000000)" fill="#FFFFFF">
            <g id="landing-copy-2" sketch:type="MSLayerGroup" transform="translate(-28.000000, -28.000000)">
                <path d="M105.384,239.504 C105.372,239.648 105.372,239.84 105.372,239.864 C105.372,240.86 105.552,241.28 106.104,241.628 C106.596,241.928 107.292,242.024 109.116,242.024 C111.528,242.024 112.692,241.904 113.292,241.616 C113.928,241.292 114.228,240.68 114.228,239.672 C114.228,239.072 114.12,238.628 113.88,238.292 C113.508,237.752 112.956,237.56 111.792,237.56 C109.656,237.548 109.656,237.548 109.068,237.548 C108.132,237.536 107.508,237.476 107.136,237.38 C106.596,237.224 106.452,236.984 106.452,236.252 C106.452,235.112 107.064,234.884 110.088,234.884 C111.096,234.884 111.84,234.956 112.236,235.088 C112.788,235.268 112.908,235.472 112.908,236.252 L112.908,236.372 L113.976,236.372 C113.964,235.34 113.832,234.944 113.376,234.584 C112.824,234.14 111.936,233.972 110.136,233.972 C109.368,233.972 108.288,234.02 107.7,234.092 C106.788,234.2 106.368,234.332 105.96,234.668 C105.564,234.992 105.36,235.52 105.36,236.24 C105.36,237.872 106.14,238.472 108.252,238.472 C112.164,238.472 112.164,238.472 112.56,238.604 C112.98,238.748 113.136,239.06 113.136,239.756 C113.136,240.44 112.884,240.836 112.368,240.944 C111.912,241.052 110.844,241.124 109.8,241.124 C108.168,241.124 107.232,241.064 106.92,240.944 C106.512,240.788 106.44,240.596 106.416,239.672 L106.416,239.504 L105.384,239.504 Z M115.104,236.444 L115.104,242 L115.98,242 L115.98,236.444 L115.104,236.444 Z M115.104,233.996 L115.104,235.04 L115.98,235.04 L115.98,233.996 L115.104,233.996 Z M117.84,235.064 L117.84,236.444 L116.472,236.444 L116.472,237.2 L117.84,237.2 L117.84,239.888 C117.84,240.764 117.912,241.112 118.152,241.448 C118.476,241.892 119.112,242.072 120.3,242.072 C121.476,242.072 122.076,241.88 122.4,241.388 C122.628,241.052 122.7,240.692 122.7,239.828 L122.7,239.48 L121.824,239.48 L121.824,239.828 C121.824,240.512 121.788,240.716 121.656,240.92 C121.464,241.22 121.164,241.304 120.384,241.304 C119.544,241.304 119.148,241.196 118.92,240.92 C118.74,240.692 118.74,240.656 118.716,239.6 L118.716,237.2 L122.604,237.2 L122.604,236.444 L118.716,236.444 L118.716,235.064 L117.84,235.064 Z M129.42,240.284 C129.384,240.644 129.36,240.74 129.216,240.884 C128.928,241.208 128.436,241.304 127.176,241.304 C125.508,241.304 124.908,241.196 124.572,240.848 C124.308,240.572 124.188,240.14 124.164,239.42 L130.356,239.42 C130.332,238.1 130.212,237.596 129.792,237.104 C129.276,236.528 128.616,236.372 126.696,236.372 C125.352,236.372 124.716,236.456 124.26,236.708 C123.54,237.104 123.216,237.884 123.216,239.24 C123.216,240.38 123.48,241.148 124.008,241.556 C124.5,241.94 125.352,242.072 127.272,242.072 C129.528,242.072 130.308,241.616 130.344,240.284 L129.42,240.284 Z M124.188,238.664 C124.284,237.428 124.752,237.14 126.672,237.14 C128.832,237.14 129.372,237.44 129.384,238.664 L124.188,238.664 Z M134.184,236.444 L134.184,242 L135.06,242 L135.06,236.444 L134.184,236.444 Z M134.184,233.996 L134.184,235.04 L135.06,235.04 L135.06,233.996 L134.184,233.996 Z M135.912,240.068 L135.912,240.356 C135.912,241.04 136.044,241.388 136.428,241.664 C136.848,241.976 137.604,242.072 139.5,242.072 C141.084,242.072 141.888,241.988 142.284,241.772 C142.74,241.52 142.944,241.112 142.944,240.428 C142.944,239.336 142.428,238.856 141.156,238.808 C140.58,238.784 138.972,238.748 138.6,238.76 C137.268,238.784 136.944,238.64 136.944,238.028 C136.944,237.74 137.028,237.536 137.196,237.416 C137.448,237.224 138.18,237.14 139.416,237.14 C140.736,237.14 141.396,237.236 141.636,237.488 C141.768,237.608 141.804,237.752 141.804,238.16 L142.74,238.16 C142.74,237.5 142.692,237.32 142.488,237.068 C142.08,236.54 141.324,236.372 139.452,236.372 C137.82,236.372 136.992,236.48 136.596,236.732 C136.2,236.996 136.008,237.416 136.008,238.016 C136.008,239.132 136.524,239.528 137.988,239.552 C140.112,239.576 140.292,239.576 140.532,239.576 C141.648,239.564 142.008,239.78 142.008,240.44 C142.008,240.716 141.936,240.908 141.768,241.04 C141.504,241.256 141.072,241.304 139.536,241.304 C137.04,241.304 136.848,241.232 136.86,240.224 L136.848,240.068 L135.912,240.068 Z M146.7,236.444 L146.7,239.516 C146.7,240.668 146.844,241.196 147.24,241.544 C147.672,241.928 148.38,242.072 149.748,242.072 C151.476,242.072 152.052,241.88 152.496,241.172 L152.544,241.172 L152.544,242 L153.42,242 L153.42,236.444 L152.544,236.444 L152.544,239.192 C152.544,239.996 152.472,240.368 152.232,240.644 C151.86,241.124 151.176,241.304 149.844,241.304 C148.812,241.304 148.296,241.196 147.984,240.932 C147.66,240.644 147.576,240.296 147.576,239.252 L147.576,236.444 L146.7,236.444 Z M154.38,236.444 L154.38,242 L155.256,242 L155.256,239.432 C155.256,238.376 155.304,238.112 155.58,237.788 C155.964,237.32 156.66,237.14 158.028,237.14 C159.24,237.14 159.792,237.272 160.08,237.62 C160.332,237.908 160.392,238.244 160.392,239.24 L160.392,242 L161.268,242 L161.268,238.868 C161.268,237.824 161.148,237.356 160.812,236.984 C160.38,236.516 159.72,236.372 158.124,236.372 C156.3,236.372 155.688,236.564 155.328,237.284 L155.256,237.284 L155.256,236.444 L154.38,236.444 Z M169.272,233.996 L168.396,233.996 L168.396,237.104 L168.336,237.104 C167.952,236.516 167.436,236.36 165.9,236.36 C164.232,236.36 163.548,236.444 163.092,236.708 C162.384,237.116 162.072,237.896 162.072,239.24 C162.072,240.548 162.336,241.232 162.996,241.664 C163.488,241.976 164.136,242.072 165.684,242.072 C167.472,242.072 167.94,241.94 168.36,241.292 L168.408,241.292 L168.408,242 L169.272,242 L169.272,233.996 Z M165.828,237.128 C168.048,237.128 168.432,237.452 168.432,239.276 C168.432,240.2 168.276,240.68 167.88,240.968 C167.532,241.22 166.944,241.304 165.54,241.304 C163.428,241.304 163.008,240.968 163.008,239.24 C163.008,238.256 163.164,237.752 163.56,237.464 C163.908,237.212 164.46,237.128 165.828,237.128 L165.828,237.128 Z M176.364,240.284 C176.328,240.644 176.304,240.74 176.16,240.884 C175.872,241.208 175.38,241.304 174.12,241.304 C172.452,241.304 171.852,241.196 171.516,240.848 C171.252,240.572 171.132,240.14 171.108,239.42 L177.3,239.42 C177.276,238.1 177.156,237.596 176.736,237.104 C176.22,236.528 175.56,236.372 173.64,236.372 C172.296,236.372 171.66,236.456 171.204,236.708 C170.484,237.104 170.16,237.884 170.16,239.24 C170.16,240.38 170.424,241.148 170.952,241.556 C171.444,241.94 172.296,242.072 174.216,242.072 C176.472,242.072 177.252,241.616 177.288,240.284 L176.364,240.284 Z M171.132,238.664 C171.228,237.428 171.696,237.14 173.616,237.14 C175.776,237.14 176.316,237.44 176.328,238.664 L171.132,238.664 Z M178.092,236.444 L178.092,242 L178.968,242 L178.968,239.432 C178.968,237.476 179.34,237.14 181.452,237.14 C182.82,237.14 183.12,237.392 183.12,238.544 L183.12,238.94 L184.02,238.94 L184.02,238.364 C184.02,237.644 183.828,237.116 183.456,236.792 C183.084,236.468 182.64,236.372 181.548,236.372 C180.492,236.372 180.024,236.42 179.688,236.588 C179.388,236.732 179.172,236.924 179.028,237.188 L178.968,237.188 L178.968,236.444 L178.092,236.444 Z M193.5,239.984 C193.464,241.064 193.068,241.292 191.268,241.292 C190.104,241.292 189.432,241.22 189.084,241.052 C188.58,240.824 188.364,240.284 188.364,239.288 C188.364,237.476 188.76,237.14 190.908,237.14 C192.948,237.14 193.428,237.38 193.452,238.424 L194.364,238.424 C194.328,237.704 194.208,237.32 193.884,236.996 C193.44,236.528 192.684,236.372 190.908,236.372 C189.576,236.372 188.928,236.468 188.448,236.732 C187.752,237.116 187.428,237.896 187.428,239.228 C187.428,240.38 187.68,241.124 188.196,241.544 C188.688,241.952 189.456,242.072 191.436,242.072 C192.876,242.072 193.5,241.916 193.932,241.46 C194.256,241.124 194.388,240.728 194.4,239.984 L193.5,239.984 Z M198.444,236.372 C197.184,236.372 196.56,236.456 196.104,236.696 C195.372,237.08 195.036,237.872 195.036,239.192 C195.036,240.56 195.312,241.268 196.02,241.676 C196.524,241.976 197.208,242.072 198.84,242.072 C200.256,242.072 200.88,241.988 201.36,241.712 C202.056,241.316 202.356,240.56 202.356,239.216 C202.356,237.92 202.08,237.2 201.408,236.768 C200.928,236.468 200.244,236.372 198.444,236.372 L198.444,236.372 Z M198.588,237.14 C199.716,237.14 200.316,237.2 200.652,237.356 C201.216,237.608 201.42,238.1 201.42,239.192 C201.42,240.164 201.276,240.656 200.916,240.944 C200.556,241.22 200.064,241.304 198.768,241.304 C197.736,241.304 197.208,241.256 196.848,241.124 C196.2,240.896 195.972,240.404 195.972,239.252 C195.972,237.464 196.368,237.14 198.588,237.14 L198.588,237.14 Z M203.196,236.444 L203.196,242 L204.072,242 L204.072,239.432 C204.072,238.376 204.12,238.112 204.396,237.788 C204.78,237.32 205.476,237.14 206.844,237.14 C208.056,237.14 208.608,237.272 208.896,237.62 C209.148,237.908 209.208,238.244 209.208,239.24 L209.208,242 L210.084,242 L210.084,238.868 C210.084,237.824 209.964,237.356 209.628,236.984 C209.196,236.516 208.536,236.372 206.94,236.372 C205.116,236.372 204.504,236.564 204.144,237.284 L204.072,237.284 L204.072,236.444 L203.196,236.444 Z M210.852,240.068 L210.852,240.356 C210.852,241.04 210.984,241.388 211.368,241.664 C211.788,241.976 212.544,242.072 214.44,242.072 C216.024,242.072 216.828,241.988 217.224,241.772 C217.68,241.52 217.884,241.112 217.884,240.428 C217.884,239.336 217.368,238.856 216.096,238.808 C215.52,238.784 213.912,238.748 213.54,238.76 C212.208,238.784 211.884,238.64 211.884,238.028 C211.884,237.74 211.968,237.536 212.136,237.416 C212.388,237.224 213.12,237.14 214.356,237.14 C215.676,237.14 216.336,237.236 216.576,237.488 C216.708,237.608 216.744,237.752 216.744,238.16 L217.68,238.16 C217.68,237.5 217.632,237.32 217.428,237.068 C217.02,236.54 216.264,236.372 214.392,236.372 C212.76,236.372 211.932,236.48 211.536,236.732 C211.14,236.996 210.948,237.416 210.948,238.016 C210.948,239.132 211.464,239.528 212.928,239.552 C215.052,239.576 215.232,239.576 215.472,239.576 C216.588,239.564 216.948,239.78 216.948,240.44 C216.948,240.716 216.876,240.908 216.708,241.04 C216.444,241.256 216.012,241.304 214.476,241.304 C211.98,241.304 211.788,241.232 211.8,240.224 L211.788,240.068 L210.852,240.068 Z M219.528,235.064 L219.528,236.444 L218.16,236.444 L218.16,237.2 L219.528,237.2 L219.528,239.888 C219.528,240.764 219.6,241.112 219.84,241.448 C220.164,241.892 220.8,242.072 221.988,242.072 C223.164,242.072 223.764,241.88 224.088,241.388 C224.316,241.052 224.388,240.692 224.388,239.828 L224.388,239.48 L223.512,239.48 L223.512,239.828 C223.512,240.512 223.476,240.716 223.344,240.92 C223.152,241.22 222.852,241.304 222.072,241.304 C221.232,241.304 220.836,241.196 220.608,240.92 C220.428,240.692 220.428,240.656 220.404,239.6 L220.404,237.2 L224.292,237.2 L224.292,236.444 L220.404,236.444 L220.404,235.064 L219.528,235.064 Z M225.024,236.444 L225.024,242 L225.9,242 L225.9,239.432 C225.9,237.476 226.272,237.14 228.384,237.14 C229.752,237.14 230.052,237.392 230.052,238.544 L230.052,238.94 L230.952,238.94 L230.952,238.364 C230.952,237.644 230.76,237.116 230.388,236.792 C230.016,236.468 229.572,236.372 228.48,236.372 C227.424,236.372 226.956,236.42 226.62,236.588 C226.32,236.732 226.104,236.924 225.96,237.188 L225.9,237.188 L225.9,236.444 L225.024,236.444 Z M231.444,236.444 L231.444,239.516 C231.444,240.668 231.588,241.196 231.984,241.544 C232.416,241.928 233.124,242.072 234.492,242.072 C236.22,242.072 236.796,241.88 237.24,241.172 L237.288,241.172 L237.288,242 L238.164,242 L238.164,236.444 L237.288,236.444 L237.288,239.192 C237.288,239.996 237.216,240.368 236.976,240.644 C236.604,241.124 235.92,241.304 234.588,241.304 C233.556,241.304 233.04,241.196 232.728,240.932 C232.404,240.644 232.32,240.296 232.32,239.252 L232.32,236.444 L231.444,236.444 Z M245.076,239.984 C245.04,241.064 244.644,241.292 242.844,241.292 C241.68,241.292 241.008,241.22 240.66,241.052 C240.156,240.824 239.94,240.284 239.94,239.288 C239.94,237.476 240.336,237.14 242.484,237.14 C244.524,237.14 245.004,237.38 245.028,238.424 L245.94,238.424 C245.904,237.704 245.784,237.32 245.46,236.996 C245.016,236.528 244.26,236.372 242.484,236.372 C241.152,236.372 240.504,236.468 240.024,236.732 C239.328,237.116 239.004,237.896 239.004,239.228 C239.004,240.38 239.256,241.124 239.772,241.544 C240.264,241.952 241.032,242.072 243.012,242.072 C244.452,242.072 245.076,241.916 245.508,241.46 C245.832,241.124 245.964,240.728 245.976,239.984 L245.076,239.984 Z M247.584,235.064 L247.584,236.444 L246.216,236.444 L246.216,237.2 L247.584,237.2 L247.584,239.888 C247.584,240.764 247.656,241.112 247.896,241.448 C248.22,241.892 248.856,242.072 250.044,242.072 C251.22,242.072 251.82,241.88 252.144,241.388 C252.372,241.052 252.444,240.692 252.444,239.828 L252.444,239.48 L251.568,239.48 L251.568,239.828 C251.568,240.512 251.532,240.716 251.4,240.92 C251.208,241.22 250.908,241.304 250.128,241.304 C249.288,241.304 248.892,241.196 248.664,240.92 C248.484,240.692 248.484,240.656 248.46,239.6 L248.46,237.2 L252.348,237.2 L252.348,236.444 L248.46,236.444 L248.46,235.064 L247.584,235.064 Z M253.116,236.444 L253.116,242 L253.992,242 L253.992,236.444 L253.116,236.444 Z M253.116,233.996 L253.116,235.04 L253.992,235.04 L253.992,233.996 L253.116,233.996 Z M258.288,236.372 C257.028,236.372 256.404,236.456 255.948,236.696 C255.216,237.08 254.88,237.872 254.88,239.192 C254.88,240.56 255.156,241.268 255.864,241.676 C256.368,241.976 257.052,242.072 258.684,242.072 C260.1,242.072 260.724,241.988 261.204,241.712 C261.9,241.316 262.2,240.56 262.2,239.216 C262.2,237.92 261.924,237.2 261.252,236.768 C260.772,236.468 260.088,236.372 258.288,236.372 L258.288,236.372 Z M258.432,237.14 C259.56,237.14 260.16,237.2 260.496,237.356 C261.06,237.608 261.264,238.1 261.264,239.192 C261.264,240.164 261.12,240.656 260.76,240.944 C260.4,241.22 259.908,241.304 258.612,241.304 C257.58,241.304 257.052,241.256 256.692,241.124 C256.044,240.896 255.816,240.404 255.816,239.252 C255.816,237.464 256.212,237.14 258.432,237.14 L258.432,237.14 Z M263.04,236.444 L263.04,242 L263.916,242 L263.916,239.432 C263.916,238.376 263.964,238.112 264.24,237.788 C264.624,237.32 265.32,237.14 266.688,237.14 C267.9,237.14 268.452,237.272 268.74,237.62 C268.992,237.908 269.052,238.244 269.052,239.24 L269.052,242 L269.928,242 L269.928,238.868 C269.928,237.824 269.808,237.356 269.472,236.984 C269.04,236.516 268.38,236.372 266.784,236.372 C264.96,236.372 264.348,236.564 263.988,237.284 L263.916,237.284 L263.916,236.444 L263.04,236.444 Z" id="sx_uc" sketch:type="MSShapeGroup"></path>
            </g>
        </g>
    </g>
</svg>